<svg width="17" height="17" viewBox="0 0 17 17" fill="none" xmlns="http://www.w3.org/2000/svg">
<g clip-path="url(#clip0_212_1407)">
<path d="M11.3469 2.9519H11.3479C12.1358 2.94962 12.9057 3.18967 13.552 3.64038C14.1983 4.0911 14.6901 4.73032 14.9602 5.47046C15.2303 6.21071 15.2659 7.01697 15.0618 7.77808C14.8576 8.53905 14.4237 9.21866 13.8196 9.72437L13.6155 9.89526L13.8577 10.0046C14.8502 10.4538 15.7044 11.1605 16.3313 12.0515L16.3323 12.0525C16.3768 12.1148 16.409 12.1858 16.426 12.2605C16.443 12.3351 16.445 12.4127 16.4319 12.488C16.4188 12.5634 16.391 12.6355 16.3499 12.7C16.3086 12.7645 16.2546 12.8204 16.1917 12.864L16.2795 12.991L16.1897 12.865C16.0923 12.9346 15.9754 12.9717 15.8557 12.9714L15.7854 12.9675C15.7161 12.9588 15.6485 12.9374 15.5862 12.905C15.5034 12.8619 15.4323 12.7995 15.3782 12.7234C14.9229 12.0775 14.3187 11.5504 13.6174 11.1863C13.004 10.8677 12.3316 10.6815 11.6438 10.6394L11.3479 10.6306L11.2327 10.6189C11.1207 10.5964 11.0168 10.5416 10.9348 10.4597C10.8253 10.3502 10.763 10.2015 10.7629 10.0466C10.7629 9.89167 10.8252 9.74312 10.9348 9.63354C11.0444 9.52399 11.193 9.46167 11.3479 9.46167C12.0562 9.46158 12.7358 9.18026 13.2366 8.67944C13.7372 8.17858 14.0188 7.49898 14.0188 6.79077C14.0187 6.08253 13.7374 5.40291 13.2366 4.9021C12.7358 4.40129 12.0561 4.11996 11.3479 4.11987C11.1037 4.11941 10.8601 4.15346 10.6252 4.22046L10.6233 4.22144C10.5493 4.24344 10.4716 4.25014 10.3948 4.24194C10.3177 4.23369 10.2429 4.20998 10.175 4.17261C10.1072 4.13523 10.0474 4.08485 9.99927 4.02417C9.95112 3.96349 9.91576 3.89366 9.89478 3.81909C9.87383 3.74455 9.86775 3.66645 9.8772 3.5896C9.88667 3.51291 9.91118 3.43895 9.94946 3.37183C9.98789 3.30453 10.0394 3.24522 10.1008 3.198C10.1622 3.15087 10.2321 3.11627 10.3069 3.09644L10.3098 3.09546C10.647 2.99947 10.9964 2.95135 11.3469 2.9519ZM6.24536 2.94702C7.03274 2.94702 7.80136 3.18904 8.44653 3.64038C9.09178 4.09188 9.58297 4.73158 9.85278 5.47144C10.1225 6.21118 10.1584 7.01636 9.95532 7.7771C9.75217 8.53782 9.31958 9.21748 8.71704 9.72437L8.51489 9.89526L8.7561 10.0046C9.62469 10.3977 10.3876 10.9878 10.9846 11.7263L11.2297 12.0515L11.2346 12.0583C11.2833 12.1207 11.3189 12.1928 11.3391 12.2693C11.3592 12.3457 11.3634 12.4255 11.3518 12.5037C11.3402 12.5819 11.3132 12.657 11.2717 12.7244C11.2302 12.7917 11.1752 12.8497 11.1106 12.8953C11.0459 12.9408 10.9722 12.9726 10.8948 12.989C10.8175 13.0053 10.7379 13.0063 10.6604 12.991C10.5828 12.9755 10.5089 12.944 10.4436 12.8992C10.4111 12.8768 10.381 12.8513 10.3538 12.823L10.2805 12.7302L10.2756 12.7234C9.82136 12.0765 9.21825 11.5479 8.51685 11.1833C7.81536 10.8188 7.03593 10.6287 6.24536 10.6287C5.45501 10.6287 4.67617 10.8189 3.97485 11.1833C3.27335 11.548 2.66939 12.0763 2.21509 12.7234V12.7244C2.16169 12.801 2.08995 12.8639 2.00708 12.907C1.92429 12.95 1.83182 12.9717 1.73853 12.9714H1.73755C1.61782 12.9717 1.50098 12.9346 1.40356 12.865H1.40259C1.27619 12.7758 1.19078 12.6395 1.16431 12.4871C1.1379 12.3347 1.17309 12.1781 1.26196 12.0515C1.88889 11.1605 2.74303 10.4538 3.7356 10.0046L3.97681 9.89526L3.77368 9.72437C3.17131 9.21753 2.73951 8.53767 2.53638 7.7771C2.33329 7.01632 2.3692 6.21122 2.63892 5.47144C2.90872 4.73159 3.39896 4.09188 4.04419 3.64038C4.68935 3.18894 5.45794 2.94708 6.24536 2.94702ZM6.76685 4.17163C6.24878 4.06858 5.71189 4.12186 5.22388 4.32397C4.73583 4.52613 4.31814 4.86814 4.02466 5.30737C3.73132 5.74647 3.57453 6.26271 3.57446 6.79077C3.57446 7.49899 3.856 8.17858 4.35669 8.67944C4.85752 9.18027 5.53709 9.46159 6.24536 9.46167C6.77362 9.46167 7.2905 9.30496 7.72974 9.01147C8.16879 8.71801 8.51103 8.30114 8.71313 7.81323C8.91526 7.32526 8.96847 6.7883 8.86548 6.27026C8.76242 5.75215 8.50757 5.27564 8.13403 4.9021C7.76058 4.52877 7.28475 4.27468 6.76685 4.17163Z" fill="#4CAF4F" stroke="#4CAF4F" stroke-width="0.333867"/>
</g>
<defs>
<clipPath id="clip0_212_1407">
<rect width="16.0256" height="16.0256" fill="white" transform="translate(0.736816 0.0302734)"/>
</clipPath>
</defs>
</svg>
