<svg width="17" height="12" viewBox="0 0 17 12" fill="none" xmlns="http://www.w3.org/2000/svg">
<path d="M11.3469 0.951904H11.3479C12.1358 0.949616 12.9057 1.18967 13.552 1.64038C14.1983 2.0911 14.6901 2.73032 14.9602 3.47046C15.2303 4.21071 15.2659 5.01697 15.0618 5.77808C14.8576 6.53905 14.4237 7.21866 13.8196 7.72437L13.6155 7.89526L13.8577 8.00464C14.8502 8.45381 15.7044 9.1605 16.3313 10.0515L16.3323 10.0525C16.3768 10.1148 16.409 10.1858 16.426 10.2605C16.443 10.3351 16.445 10.4127 16.4319 10.488C16.4188 10.5634 16.391 10.6355 16.3499 10.7C16.3086 10.7645 16.2546 10.8204 16.1917 10.864L16.2795 10.991L16.1897 10.865C16.0923 10.9346 15.9754 10.9717 15.8557 10.9714L15.7854 10.9675C15.7161 10.9588 15.6485 10.9374 15.5862 10.905C15.5034 10.8619 15.4323 10.7995 15.3782 10.7234C14.9229 10.0775 14.3187 9.55044 13.6174 9.18628C13.004 8.86773 12.3316 8.68148 11.6438 8.6394L11.3479 8.63062L11.2327 8.6189C11.1207 8.59642 11.0168 8.54161 10.9348 8.45972C10.8253 8.35022 10.763 8.20148 10.7629 8.04663C10.7629 7.89167 10.8252 7.74312 10.9348 7.63354C11.0444 7.52399 11.193 7.46167 11.3479 7.46167C12.0562 7.46158 12.7358 7.18026 13.2366 6.67944C13.7372 6.17858 14.0188 5.49898 14.0188 4.79077C14.0187 4.08253 13.7374 3.40291 13.2366 2.9021C12.7358 2.40129 12.0561 2.11996 11.3479 2.11987C11.1037 2.11941 10.8601 2.15346 10.6252 2.22046L10.6233 2.22144C10.5493 2.24344 10.4716 2.25014 10.3948 2.24194C10.3177 2.23369 10.2429 2.20998 10.175 2.17261C10.1072 2.13523 10.0474 2.08485 9.99927 2.02417C9.95112 1.96349 9.91576 1.89366 9.89478 1.81909C9.87383 1.74455 9.86775 1.66645 9.8772 1.5896C9.88667 1.51291 9.91118 1.43895 9.94946 1.37183C9.98789 1.30453 10.0394 1.24522 10.1008 1.198C10.1622 1.15087 10.2321 1.11627 10.3069 1.09644L10.3098 1.09546C10.647 0.99947 10.9964 0.951355 11.3469 0.951904ZM6.24536 0.947021C7.03274 0.947021 7.80136 1.18904 8.44653 1.64038C9.09178 2.09188 9.58297 2.73158 9.85278 3.47144C10.1225 4.21118 10.1584 5.01636 9.95532 5.7771C9.75217 6.53782 9.31958 7.21748 8.71704 7.72437L8.51489 7.89526L8.7561 8.00464C9.62469 8.39775 10.3876 8.98782 10.9846 9.72632L11.2297 10.0515L11.2346 10.0583C11.2833 10.1207 11.3189 10.1928 11.3391 10.2693C11.3592 10.3457 11.3634 10.4255 11.3518 10.5037C11.3402 10.5819 11.3132 10.657 11.2717 10.7244C11.2302 10.7917 11.1752 10.8497 11.1106 10.8953C11.0459 10.9408 10.9722 10.9726 10.8948 10.989C10.8175 11.0053 10.7379 11.0063 10.6604 10.991C10.5828 10.9755 10.5089 10.944 10.4436 10.8992C10.4111 10.8768 10.381 10.8513 10.3538 10.823L10.2805 10.7302L10.2756 10.7234C9.82136 10.0765 9.21825 9.54791 8.51685 9.18335C7.81536 8.81877 7.03593 8.62866 6.24536 8.62866C5.45501 8.62871 4.67617 8.81892 3.97485 9.18335C3.27335 9.54796 2.66939 10.0763 2.21509 10.7234V10.7244C2.16169 10.801 2.08995 10.8639 2.00708 10.907C1.92429 10.95 1.83182 10.9717 1.73853 10.9714H1.73755C1.61782 10.9717 1.50098 10.9346 1.40356 10.865H1.40259C1.27619 10.7758 1.19078 10.6395 1.16431 10.4871C1.1379 10.3347 1.17309 10.1781 1.26196 10.0515C1.88889 9.16051 2.74303 8.45381 3.7356 8.00464L3.97681 7.89526L3.77368 7.72437C3.17131 7.21753 2.73951 6.53767 2.53638 5.7771C2.33329 5.01632 2.3692 4.21122 2.63892 3.47144C2.90872 2.73159 3.39896 2.09188 4.04419 1.64038C4.68935 1.18894 5.45794 0.947082 6.24536 0.947021ZM6.76685 2.17163C6.24878 2.06858 5.71189 2.12186 5.22388 2.32397C4.73583 2.52613 4.31814 2.86814 4.02466 3.30737C3.73132 3.74647 3.57453 4.26271 3.57446 4.79077C3.57446 5.49899 3.856 6.17858 4.35669 6.67944C4.85752 7.18027 5.53709 7.46159 6.24536 7.46167C6.77362 7.46167 7.2905 7.30496 7.72974 7.01147C8.16879 6.71801 8.51103 6.30114 8.71313 5.81323C8.91526 5.32526 8.96847 4.7883 8.86548 4.27026C8.76242 3.75215 8.50757 3.27564 8.13403 2.9021C7.76058 2.52877 7.28475 2.27468 6.76685 2.17163Z" fill="#2194F3" stroke="#4CAF4F" stroke-width="0.333867"/>
</svg>
